PathFileType	4	(X/Y/Z)	RBDS05static.trc
DataRate	CameraRate	NumFrames	NumMarkers	Units	OrigDataRate	OrigDataStartFrame	OrigNumFrames
150.000000	150.000000	4	48	mm	150.000000	18	150
Frame#	Time	L.Ankle			L.Ankle.Medial			L.ASIS			L.GTR			L.Heel.Bottom			L.Heel.Lateral			L.Heel.Top			L.HF			L.Iliac.Crest			L.Knee			L.Knee.Medial			L.MT1			L.MT2			L.MT5			L.PSIS			L.Shank.Bottom.Lateral			L.Shank.Bottom.Medial			L.Shank.Top.Lateral			L.Shank.Top.Medial			L.Thigh.Bottom.Lateral			L.Thigh.Bottom.Medial			L.Thigh.Top.Lateral			L.Thigh.Top.Medial			L.TT			R.Ankle			R.Ankle.Medial			R.ASIS			R.GTR			R.Heel.Bottom			R.Heel.Lateral			R.Heel.Top			R.HF			R.Iliac.Crest			R.Knee			R.Knee.Medial			R.MT1			R.MT2			R.MT5			R.PSIS			R.Shank.Bottom.Lateral			R.Shank.Bottom.Medial			R.Shank.Top.Lateral			R.Shank.Top.Medial			R.Thigh.Bottom.Lateral			R.Thigh.Bottom.Medial			R.Thigh.Top.Lateral			R.Thigh.Top.Medial			R.TT			
		X1	Y1	Z1	X2	Y2	Z2	X3	Y3	Z3	X4	Y4	Z4	X5	Y5	Z5	X6	Y6	Z6	X7	Y7	Z7	X8	Y8	Z8	X9	Y9	Z9	X10	Y10	Z10	X11	Y11	Z11	X12	Y12	Z12	X13	Y13	Z13	X14	Y14	Z14	X15	Y15	Z15	X16	Y16	Z16	X17	Y17	Z17	X18	Y18	Z18	X19	Y19	Z19	X20	Y20	Z20	X21	Y21	Z21	X22	Y22	Z22	X23	Y23	Z23	X24	Y24	Z24	X25	Y25	Z25	X26	Y26	Z26	X27	Y27	Z27	X28	Y28	Z28	X29	Y29	Z29	X30	Y30	Z30	X31	Y31	Z31	X32	Y32	Z32	X33	Y33	Z33	X34	Y34	Z34	X35	Y35	Z35	X36	Y36	Z36	X37	Y37	Z37	X38	Y38	Z38	X39	Y39	Z39	X40	Y40	Z40	X41	Y41	Z41	X42	Y42	Z42	X43	Y43	Z43	X44	Y44	Z44	X45	Y45	Z45	X46	Y46	Z46	X47	Y47	Z47	X48	Y48	Z48	

19	0.12	700.18505859375	104.8216323852539	1043.696044921875	726.20263671875	110.0239944458008	1122.669799804688	832.7255859375	979.088134765625	1107.030639648438	753.4395141601563	888.8101806640625	1059.228881835938	637.7464599609375	38.2220344543457	1080.55126953125	671.296142578125	57.37857437133789	1039.905029296875	648.7882690429688	87.41624450683594	1082.859252929688	731.7734375	449.6073303222656	1050.895385742188	760.69775390625	1038.545532226563	1067.685302734375	741.0426635742188	500.7926635742188	1058.179321289063	742.4571533203125	488.4596557617188	1175.6435546875	840.9365844726563	56.94210052490234	1127.278930664063	851.3599243164063	66.89730072021484	1074.546142578125	820.5070190429688	50.91858291625977	1022.158569335938	674.2389526367188	1002.78564453125	1171.04150390625	709.5502319335938	185.4161376953125	1037.887573242188	669.4456787109375	182.7395172119141	1069.465454101563	705.9228515625	265.7954711914063	1033.118408203125	665.2975463867188	267.4512939453125	1067.153442382813	756.0634155273438	631.0673828125	1043.345336914063	693.8014526367188	624.269775390625	1081.207153320313	739.6539916992188	740.645263671875	1043.5859375	686.1968383789063	734.288818359375	1086.393920898438	789.1041870117188	421.9789428710938	1097.431396484375	692.6578369140625	107.1678771972656	1408.75634765625	716.474365234375	118.48046875	1334.630615234375	825.5607299804688	987.6695556640625	1337.038696289063	741.9701538085938	894.0787963867188	1383.645874023438	631.0401611328125	39.38203048706055	1371.571655273438	659.0374145507813	53.78096008300781	1409.659057617188	640.8325805664063	87.27131652832031	1371.909545898438	720.8104248046875	460.7354431152344	1389.770751953125	766.3190307617188	1030.867065429688	1362.734130859375	734.1140747070313	513.960693359375	1384.398803710938	755.9080200195313	491.8031005859375	1273.498413085938	834.6663208007813	58.20817565917969	1329.225219726563	841.5110473632813	72.73184204101563	1370.137817382813	814.94384765625	52.670654296875	1434.482177734375	676.1586303710938	1010.528625488281	1259.223266601563	693.029296875	195.4996490478516	1412.025634765625	656.9852294921875	194.0008697509766	1370.647094726563	687.6396484375	276.5234985351563	1411.021850585938	653.916748046875	273.7973937988281	1369.3642578125	752.8896484375	607.9031372070313	1399.867431640625	689.8292846679688	601.7330322265625	1361.421142578125	738.6261596679688	717.74609375	1400.467163085938	680.513427734375	711.6770629882813	1360.932373046875	783.1368408203125	429.5088806152344	1355.853637695313	
20	0.1266666666666667	700.1658935546875	104.8163375854492	1043.689208984375	726.1972045898438	110.0176010131836	1122.662231445313	832.7203979492188	979.08447265625	1107.024169921875	753.42138671875	888.8264770507813	1059.181884765625	637.7535400390625	38.21270370483398	1080.546630859375	671.3067626953125	57.37858963012695	1039.909545898438	648.794677734375	87.41588592529297	1082.863891601563	731.7764282226563	449.6122131347656	1050.889770507813	760.693603515625	1038.54345703125	1067.688232421875	741.0426025390625	500.7854614257813	1058.181396484375	742.4630126953125	488.4586791992188	1175.643432617188	840.9282836914063	56.9431037902832	1127.268188476563	851.3484497070313	66.89585113525391	1074.537109375	820.5095825195313	50.91896057128906	1022.150451660156	674.2236328125	1002.794128417969	1171.048095703125	709.5525512695313	185.4110412597656	1037.894287109375	669.4436645507813	182.7389373779297	1069.46337890625	705.9342651367188	265.7899780273438	1033.113891601563	665.2960205078125	267.4464721679688	1067.163940429688	756.0590209960938	631.061767578125	1043.348999023438	693.797607421875	624.2613525390625	1081.205810546875	739.652099609375	740.6489868164063	1043.582641601563	686.1931762695313	734.279052734375	1086.400756835938	789.1051635742188	421.9861145019531	1097.423583984375	692.6536254882813	107.1859512329102	1408.7587890625	716.488525390625	118.4824066162109	1334.630249023438	825.572021484375	987.6697998046875	1337.023071289063	741.9860229492188	894.0663452148438	1383.657470703125	631.034423828125	39.38397979736328	1371.568115234375	659.0394897460938	53.79169082641602	1409.64794921875	640.8331298828125	87.27847290039063	1371.913330078125	720.8374633789063	460.7310791015625	1389.772827148438	766.3353881835938	1030.887817382813	1362.733520507813	734.1436767578125	513.9624633789063	1384.400512695313	755.934814453125	491.8031311035156	1273.510498046875	834.6597900390625	58.2067756652832	1329.21923828125	841.5015258789063	72.73937225341797	1370.127685546875	814.9476928710938	52.67087173461914	1434.4794921875	676.1591796875	1010.527893066406	1259.23388671875	693.041259765625	195.4966278076172	1412.026123046875	656.9893188476563	194.0021362304688	1370.654907226563	687.6448974609375	276.5297546386719	1411.017700195313	653.9295043945313	273.8061218261719	1369.36962890625	752.9283447265625	607.9064331054688	1399.876220703125	689.8519287109375	601.729736328125	1361.462646484375	738.6455688476563	717.751953125	1400.476196289063	680.5247192382813	711.6784057617188	1360.964965820313	783.1513671875	429.5129089355469	1355.8515625	
21	0.1333333333333333	700.18359375	104.8192367553711	1043.68603515625	726.2069091796875	110.0250625610352	1122.658935546875	832.719482421875	979.084716796875	1107.0205078125	753.4169311523438	888.805419921875	1059.251831054688	637.7471313476563	38.21406936645508	1080.547729492188	671.3126831054688	57.37207794189453	1039.907348632813	648.7901000976563	87.41703033447266	1082.85498046875	731.7799072265625	449.6141052246094	1050.897338867188	760.6981201171875	1038.52783203125	1067.694091796875	741.048828125	500.7854614257813	1058.178100585938	742.4742431640625	488.4620666503906	1175.660400390625	840.9405517578125	56.95180892944336	1127.268310546875	851.3533935546875	66.90068817138672	1074.540161132813	820.5009765625	50.93000793457031	1022.140563964844	674.2240600585938	1002.78076171875	1171.06787109375	709.5556640625	185.4177551269531	1037.890625	669.4517822265625	182.7298126220703	1069.458251953125	705.93310546875	265.7900390625	1033.124633789063	665.298095703125	267.4573669433594	1067.146606445313	756.0601196289063	631.0568237304688	1043.347778320313	693.8045654296875	624.2639770507813	1081.209106445313	739.644287109375	740.6366577148438	1043.5908203125	686.1834106445313	734.28076171875	1086.40185546875	789.1100463867188	421.9856872558594	1097.425903320313	692.6533813476563	107.1885375976563	1408.76171875	716.4805908203125	118.4815521240234	1334.633178710938	825.5645141601563	987.671630859375	1337.028686523438	741.9883422851563	894.078369140625	1383.677734375	631.04052734375	39.38428497314453	1371.573608398438	659.0369262695313	53.78928756713867	1409.662231445313	640.8312377929688	87.27635192871094	1371.906127929688	720.8633422851563	460.7258911132813	1389.787353515625	766.351806640625	1030.917724609375	1362.72802734375	734.1622314453125	513.9661254882813	1384.416870117188	755.9365844726563	491.8053588867188	1273.51123046875	834.6552124023438	58.20789337158203	1329.225219726563	841.5040283203125	72.73538970947266	1370.12939453125	814.93896484375	52.67358016967773	1434.492919921875	676.1641235351563	1010.535339355469	1259.244506835938	693.0451049804688	195.5110168457031	1412.032104492188	657.002685546875	193.9958953857422	1370.657104492188	687.6638793945313	276.5300903320313	1411.028930664063	653.93994140625	273.8079528808594	1369.377563476563	752.9556884765625	607.8941650390625	1399.885498046875	689.8768310546875	601.7266845703125	1361.47265625	738.6610107421875	717.7452392578125	1400.486938476563	680.5322265625	711.6710815429688	1360.978149414063	783.1572875976563	429.5091247558594	1355.850952148438	
22	0.14	700.1766357421875	104.8052749633789	1043.689331054688	726.2055053710938	110.0280151367188	1122.661987304688	832.7125244140625	979.0782470703125	1107.0205078125	753.4021606445313	888.8050537109375	1059.250366210938	637.7483520507813	38.2197380065918	1080.544311523438	671.3109130859375	57.36913299560547	1039.91455078125	648.7896728515625	87.41684722900391	1082.86083984375	731.791015625	449.6092224121094	1050.901123046875	760.6856689453125	1038.506591796875	1067.70556640625	741.0557250976563	500.78515625	1058.17724609375	742.5012817382813	488.463623046875	1175.655639648438	840.9415893554688	56.95653915405273	1127.274536132813	851.3507080078125	66.90038299560547	1074.539916992188	820.5042114257813	50.92366790771484	1022.148315429688	674.22216796875	1002.792175292969	1171.0712890625	709.56201171875	185.4148406982422	1037.890502929688	669.4515991210938	182.7347564697266	1069.458374023438	705.9345092773438	265.7932434082031	1033.116455078125	665.3032836914063	267.4541931152344	1067.152099609375	756.0524291992188	631.0601806640625	1043.355224609375	693.8023071289063	624.2456665039063	1081.21484375	739.6329345703125	740.6333618164063	1043.590209960938	686.1784057617188	734.272216796875	1086.419189453125	789.1176147460938	421.9924621582031	1097.4208984375	692.6627807617188	107.1809158325195	1408.765380859375	716.4736938476563	118.4872665405273	1334.611450195313	825.5731811523438	987.6737670898438	1337.0234375	742.00048828125	894.0909423828125	1383.686401367188	631.0439453125	39.38567733764648	1371.563842773438	659.036865234375	53.78852462768555	1409.657592773438	640.8325805664063	87.27677917480469	1371.910278320313	720.8864135742188	460.7307434082031	1389.79052734375	766.3571166992188	1030.922119140625	1362.724365234375	734.1840209960938	513.9673461914063	1384.427734375	755.954833984375	491.8019104003906	1273.51025390625	834.6598510742188	58.21319961547852	1329.220825195313	841.50439453125	72.74517059326172	1370.12744140625	814.9447631835938	52.67862319946289	1434.48828125	676.1583251953125	1010.529357910156	1259.252197265625	693.04638671875	195.5021820068359	1412.035522460938	656.9968872070313	194.0001525878906	1370.657348632813	687.667236328125	276.5221252441406	1411.023803710938	653.9481811523438	273.8045654296875	1369.381225585938	752.9716186523438	607.8975219726563	1399.9013671875	689.8877563476563	601.7225341796875	1361.48095703125	738.670654296875	717.7442016601563	1400.496826171875	680.5430908203125	711.6649780273438	1361.000366210938	783.17236328125	429.520751953125	1355.850952148438	
